<svg width="65" height="61" viewBox="0 0 65 61" fill="none" xmlns="http://www.w3.org/2000/svg">
<path opacity="0.5" d="M64.0578 0.410504L48.3788 55.9541C48.2991 56.2062 47.9802 56.2819 47.7942 56.1054L37.2972 46.1464L45.1633 18.3115C45.243 18.0594 45.0038 17.8325 44.7381 17.9081L15.3997 25.3711L4.95591 15.4625C4.76988 15.286 4.84961 14.9834 5.11535 14.9078L63.6326 0.00710022C63.8984 -0.0433252 64.1375 0.183589 64.0578 0.410504Z" fill="#00B37E"/>
<path opacity="0.5" d="M37.2967 46.1459L33.2573 60.5171C33.1776 60.7693 32.8587 60.8449 32.6727 60.6684L0.0922109 29.7828C-0.0938113 29.6063 -0.014088 29.3038 0.251658 29.2282L15.3992 25.3706L37.2967 46.1459Z" fill="#00B37E"/>
<path d="M45.1619 18.311L37.2959 46.1459L15.3984 25.3706L44.7368 17.9076C45.0025 17.832 45.2417 18.0589 45.1619 18.311Z" fill="#00B37E"/>
</svg>
